PathFileType	4	(X/Y/Z)	path1_09_0-604.trc
DataRate	CameraRate	NumFrames	NumMarkers	Units	OrigDataRate	OrigDataStartFrame	OrigNumFrames
30	30	4	22	m	30	0	604
Frame#	Time	Hip			RHip			RKnee			RAnkle			RBigToe			RSmallToe			RHeel			LHip			LKnee			LAnkle			LBigToe			LSmallToe			LHeel			Neck			Head			Nose			RShoulder			RElbow			RWrist			LShoulder			LElbow			LWrist		
		X1	Y1	Z1	X2	Y2	Z2	X3	Y3	Z3	X4	Y4	Z4	X5	Y5	Z5	X6	Y6	Z6	X7	Y7	Z7	X8	Y8	Z8	X9	Y9	Z9	X10	Y10	Z10	X11	Y11	Z11	X12	Y12	Z12	X13	Y13	Z13	X14	Y14	Z14	X15	Y15	Z15	X16	Y16	Z16	X17	Y17	Z17	X18	Y18	Z18	X19	Y19	Z19	X20	Y20	Z20	X21	Y21	Z21	X22	Y22	Z22
1	0.0333333333333333	2.4034935035528826	0.8376012939454188	0.7350833816759554	2.4129625981214065	0.8016595071809318	0.6618835360294362	2.391020928044733	0.46724660452207406	0.6521451260708284	2.4511185417773365	0.1125149187664402	0.6534049205218346	2.285811335393629	0.030390246097724345	0.642708105312486	2.321063883013942	0.02401186590254115	0.5858384318728812	2.499473351972448	0.0384045598933048	0.670162584245975	2.406375330205332	0.8016999073644816	0.82661155629119	2.4294073882382814	0.44181968564144053	0.8132883271265571	2.474223993125757	0.09639652851622002	0.8027712682608595	2.2893340920770355	0.01854213252729311	0.8164427699582187	2.3246502595962593	0.02368864182428695	0.8752127273347339	2.5209680179840057	0.03619059775037265	0.8291571211371788	2.3689271035088493	1.4732786675921132	0.7431993808050937	2.289975007254639	1.6930260027931294	0.7337668587328233	2.2315733289190494	1.5984920451767681	0.7229044122561908	2.4219141273318643	1.3743043838053528	0.5803950299399524	2.470253238502007	1.088955188916026	0.562579326922782	2.465833235148251	0.8545694640359272	0.525435616308901	2.398789853708783	1.360789501640361	0.8883446451648868	2.4391873830747732	1.0779527729566187	0.9446701337247435	2.4483313984984014	0.840498537541812	0.9378269301877884
2	0.0666666666666666	2.403493531541839	0.8390081596712795	0.7345052749883649	2.4108511901423118	0.8083984086382289	0.660244839980636	2.3929291082770057	0.46880456456129693	0.6501190778501994	2.45171450308447	0.11255563284976597	0.6537362098944621	2.2804145928789854	0.03133636488996214	0.6419401820789739	2.3177108719068404	0.02591166139962979	0.5848921434310542	2.500240317271068	0.03830640879337881	0.670798324907045	2.406153354906354	0.8074532513526435	0.8244245362886791	2.426907136970658	0.4416300322529361	0.8213673406408899	2.475662681105959	0.09736692024104907	0.8139729243136926	2.2970883153662354	0.015990177650159493	0.8235396753383274	2.32004320534517	0.026806773868286896	0.8727683051773946	2.5220885834934887	0.033510122523983533	0.826723662539812	2.3660106731181405	1.4672632901343579	0.7411431725631631	2.2927955823861264	1.6914829321664806	0.7335946855478591	2.231628857688107	1.6000244725930557	0.7246988420309733	2.4201137754099395	1.37508352369736	0.5783915201111057	2.4724551728167175	1.0878671132050861	0.5636584798614489	2.4661473273746948	0.8544140969720666	0.5322655577308202	2.397326811290263	1.361125911730645	0.8899255989780358	2.4388464404276586	1.0775807242181985	0.9426152750977422	2.4524367644221257	0.8430810510367267	0.9354359462669746
3	0.1	2.4033773646169045	0.8402027395457907	0.7340604799178305	2.409004163722333	0.8139156340657129	0.6588718293360069	2.3944206539851143	0.4700896346384744	0.6484707395117858	2.4521436486601367	0.11257064166672298	0.6540078608438437	2.2761339690664903	0.03214847166958932	0.6413267533980316	2.314975028693905	0.02739248757290712	0.5841565155709743	2.50096732664401	0.03811261025590018	0.6714110331858569	2.405887019534089	0.8122020837128868	0.8225935767285378	2.4246890922984274	0.4416220490583188	0.8276026305528986	2.4767269971764883	0.09823169227681164	0.8230135632547356	2.303386698710916	0.013866076465139161	0.8293071369198046	2.3163358118544974	0.0292876235449338	0.8709487082433203	2.522327011086326	0.031605094076801114	0.8244167416832077	2.36335859343134	1.4623873927698845	0.7392642552850583	2.294860155271109	1.6905100897624343	0.7331499281174746	2.231540120778291	1.6012593767881245	0.7258539978803356	2.4185979762647394	1.3755963454751547	0.5766569228123465	2.4742639632609977	1.0868235060632492	0.5646003115490325	2.4663850702400345	0.8538802274761238	0.5374000222373532	2.3959529848012338	1.3613395350427036	0.8911993628079823	2.438530285655592	1.077277380274112	0.9409874262081115	2.4555960919761666	0.8451321260230799	0.9335934509113039
4	0.1333333333333333	2.40308839910603	0.8411028263512006	0.7337729009444577	2.4075952286935407	0.8175992574570318	0.6579258459570515	2.395326033545765	0.4709570420596186	0.6474208409194798	2.4523222429474942	0.11256206004019917	0.654195163159658	2.273446866040241	0.03274904007128752	0.6409091159874346	2.31312977018973	0.028248889243883257	0.5837245632762073	2.5015898479325474	0.037785850314890804	0.6720364673311127	2.4056121267992063	0.8154569046401785	0.8213359581603555	2.4229445874495927	0.44189293451675093	0.8313253429277567	2.4772308417672315	0.09894692447799912	0.8289203622613658	2.3075436874280744	0.012416353689116566	0.8330945919197158	2.313937670082552	0.030865313870066	0.8700166014761755	2.521226099450631	0.03084489932170159	0.8222072096663997	2.361131470248843	1.4591139715868942	0.7376591851750189	2.2960178714549744	1.690521444701904	0.7321913488909327	2.2312694969401488	1.6019765862020592	0.726101662382475	2.41755058083441	1.3756895769453577	0.5754040930592387	2.4754256595749076	1.0858955048274475	0.5652313705607186	2.466541559660106	0.8529770983418944	0.540591229342299	2.3947877390402628	1.3614276167352946	0.8920680886837914	2.438222791925152	1.0770874117558926	0.9399960685485202	2.457386867745702	0.8464085412604471	0.9324505238340676
